<?xml version="1.0" encoding="utf-8" standalone="no"?>
<!DOCTYPE svg PUBLIC "-//W3C//DTD SVG 1.1//EN"
  "http://www.w3.org/Graphics/SVG/1.1/DTD/svg11.dtd">
<!-- Created with matplotlib (http://matplotlib.org/) -->
<svg height="360pt" version="1.1" viewBox="0 0 504 360" width="504pt" xmlns="http://www.w3.org/2000/svg" xmlns:xlink="http://www.w3.org/1999/xlink">
 <defs>
  <style type="text/css">
*{stroke-linecap:butt;stroke-linejoin:round;}
  </style>
 </defs>
 <g id="figure_1">
  <g id="patch_1">
   <path d="M 0 360 
L 504 360 
L 504 0 
L 0 0 
z
" style="fill:#ffffff;"/>
  </g>
  <g id="axes_1">
   <g id="patch_2">
    <path d="M 63 320.4 
L 453.6 320.4 
L 453.6 43.2 
L 63 43.2 
z
" style="fill:#ffffff;"/>
   </g>
   <g id="matplotlib.axis_1">
    <g id="xtick_1">
     <g id="text_1">
      <!-- 0 -->
      <defs>
       <path d="M 4.15625 35.296875 
Q 4.15625 48 6.765625 55.734375 
Q 9.375 63.484375 14.515625 67.671875 
Q 19.671875 71.875 27.484375 71.875 
Q 33.25 71.875 37.59375 69.546875 
Q 41.9375 67.234375 44.765625 62.859375 
Q 47.609375 58.5 49.21875 52.21875 
Q 50.828125 45.953125 50.828125 35.296875 
Q 50.828125 22.703125 48.234375 14.96875 
Q 45.65625 7.234375 40.5 3 
Q 35.359375 -1.21875 27.484375 -1.21875 
Q 17.140625 -1.21875 11.234375 6.203125 
Q 4.15625 15.140625 4.15625 35.296875 
z
M 13.1875 35.296875 
Q 13.1875 17.671875 17.3125 11.828125 
Q 21.4375 6 27.484375 6 
Q 33.546875 6 37.671875 11.859375 
Q 41.796875 17.71875 41.796875 35.296875 
Q 41.796875 52.984375 37.671875 58.78125 
Q 33.546875 64.59375 27.390625 64.59375 
Q 21.34375 64.59375 17.71875 59.46875 
Q 13.1875 52.9375 13.1875 35.296875 
z
" id="ArialMT-30"/>
      </defs>
      <g style="fill:#262626;" transform="translate(76.198622 334.557813)scale(0.1 -0.1)">
       <use xlink:href="#ArialMT-30"/>
      </g>
     </g>
    </g>
    <g id="xtick_2">
     <g id="text_2">
      <!-- 25 -->
      <defs>
       <path d="M 50.34375 8.453125 
L 50.34375 0 
L 3.03125 0 
Q 2.9375 3.171875 4.046875 6.109375 
Q 5.859375 10.9375 9.828125 15.625 
Q 13.8125 20.3125 21.34375 26.46875 
Q 33.015625 36.03125 37.109375 41.625 
Q 41.21875 47.21875 41.21875 52.203125 
Q 41.21875 57.421875 37.46875 61 
Q 33.734375 64.59375 27.734375 64.59375 
Q 21.390625 64.59375 17.578125 60.78125 
Q 13.765625 56.984375 13.71875 50.25 
L 4.6875 51.171875 
Q 5.609375 61.28125 11.65625 66.578125 
Q 17.71875 71.875 27.9375 71.875 
Q 38.234375 71.875 44.234375 66.15625 
Q 50.25 60.453125 50.25 52 
Q 50.25 47.703125 48.484375 43.546875 
Q 46.734375 39.40625 42.65625 34.8125 
Q 38.578125 30.21875 29.109375 22.21875 
Q 21.1875 15.578125 18.9375 13.203125 
Q 16.703125 10.84375 15.234375 8.453125 
z
" id="ArialMT-32"/>
       <path d="M 4.15625 18.75 
L 13.375 19.53125 
Q 14.40625 12.796875 18.140625 9.390625 
Q 21.875 6 27.15625 6 
Q 33.5 6 37.890625 10.78125 
Q 42.28125 15.578125 42.28125 23.484375 
Q 42.28125 31 38.0625 35.34375 
Q 33.84375 39.703125 27 39.703125 
Q 22.75 39.703125 19.328125 37.765625 
Q 15.921875 35.84375 13.96875 32.765625 
L 5.71875 33.84375 
L 12.640625 70.609375 
L 48.25 70.609375 
L 48.25 62.203125 
L 19.671875 62.203125 
L 15.828125 42.96875 
Q 22.265625 47.46875 29.34375 47.46875 
Q 38.71875 47.46875 45.15625 40.96875 
Q 51.609375 34.46875 51.609375 24.265625 
Q 51.609375 14.546875 45.953125 7.46875 
Q 39.0625 -1.21875 27.15625 -1.21875 
Q 17.390625 -1.21875 11.203125 4.25 
Q 5.03125 9.71875 4.15625 18.75 
z
" id="ArialMT-35"/>
      </defs>
      <g style="fill:#262626;" transform="translate(117.804517 334.557813)scale(0.1 -0.1)">
       <use xlink:href="#ArialMT-32"/>
       <use x="55.615234" xlink:href="#ArialMT-35"/>
      </g>
     </g>
    </g>
    <g id="xtick_3">
     <g id="text_3">
      <!-- 50 -->
      <g style="fill:#262626;" transform="translate(162.190881 334.557813)scale(0.1 -0.1)">
       <use xlink:href="#ArialMT-35"/>
       <use x="55.615234" xlink:href="#ArialMT-30"/>
      </g>
     </g>
    </g>
    <g id="xtick_4">
     <g id="text_4">
      <!-- 75 -->
      <defs>
       <path d="M 4.734375 62.203125 
L 4.734375 70.65625 
L 51.078125 70.65625 
L 51.078125 63.8125 
Q 44.234375 56.546875 37.515625 44.484375 
Q 30.8125 32.421875 27.15625 19.671875 
Q 24.515625 10.6875 23.78125 0 
L 14.75 0 
Q 14.890625 8.453125 18.0625 20.40625 
Q 21.234375 32.375 27.171875 43.484375 
Q 33.109375 54.59375 39.796875 62.203125 
z
" id="ArialMT-37"/>
      </defs>
      <g style="fill:#262626;" transform="translate(206.577244 334.557813)scale(0.1 -0.1)">
       <use xlink:href="#ArialMT-37"/>
       <use x="55.615234" xlink:href="#ArialMT-35"/>
      </g>
     </g>
    </g>
    <g id="xtick_5">
     <g id="text_5">
      <!-- 100 -->
      <defs>
       <path d="M 37.25 0 
L 28.46875 0 
L 28.46875 56 
Q 25.296875 52.984375 20.140625 49.953125 
Q 14.984375 46.921875 10.890625 45.40625 
L 10.890625 53.90625 
Q 18.265625 57.375 23.78125 62.296875 
Q 29.296875 67.234375 31.59375 71.875 
L 37.25 71.875 
z
" id="ArialMT-31"/>
      </defs>
      <g style="fill:#262626;" transform="translate(248.183139 334.557813)scale(0.1 -0.1)">
       <use xlink:href="#ArialMT-31"/>
       <use x="55.615234" xlink:href="#ArialMT-30"/>
       <use x="111.230469" xlink:href="#ArialMT-30"/>
      </g>
     </g>
    </g>
    <g id="xtick_6">
     <g id="text_6">
      <!-- 125 -->
      <g style="fill:#262626;" transform="translate(292.569503 334.557813)scale(0.1 -0.1)">
       <use xlink:href="#ArialMT-31"/>
       <use x="55.615234" xlink:href="#ArialMT-32"/>
       <use x="111.230469" xlink:href="#ArialMT-35"/>
      </g>
     </g>
    </g>
    <g id="xtick_7">
     <g id="text_7">
      <!-- 150 -->
      <g style="fill:#262626;" transform="translate(336.955866 334.557813)scale(0.1 -0.1)">
       <use xlink:href="#ArialMT-31"/>
       <use x="55.615234" xlink:href="#ArialMT-35"/>
       <use x="111.230469" xlink:href="#ArialMT-30"/>
      </g>
     </g>
    </g>
    <g id="xtick_8">
     <g id="text_8">
      <!-- 175 -->
      <g style="fill:#262626;" transform="translate(381.34223 334.557813)scale(0.1 -0.1)">
       <use xlink:href="#ArialMT-31"/>
       <use x="55.615234" xlink:href="#ArialMT-37"/>
       <use x="111.230469" xlink:href="#ArialMT-35"/>
      </g>
     </g>
    </g>
    <g id="xtick_9">
     <g id="text_9">
      <!-- 200 -->
      <g style="fill:#262626;" transform="translate(425.728594 334.557813)scale(0.1 -0.1)">
       <use xlink:href="#ArialMT-32"/>
       <use x="55.615234" xlink:href="#ArialMT-30"/>
       <use x="111.230469" xlink:href="#ArialMT-30"/>
      </g>
     </g>
    </g>
    <g id="text_10">
     <!-- No. of genomes -->
     <defs>
      <path d="M 7.625 0 
L 7.625 71.578125 
L 17.328125 71.578125 
L 54.9375 15.375 
L 54.9375 71.578125 
L 64.015625 71.578125 
L 64.015625 0 
L 54.296875 0 
L 16.703125 56.25 
L 16.703125 0 
z
" id="ArialMT-4e"/>
      <path d="M 3.328125 25.921875 
Q 3.328125 40.328125 11.328125 47.265625 
Q 18.015625 53.03125 27.640625 53.03125 
Q 38.328125 53.03125 45.109375 46.015625 
Q 51.90625 39.015625 51.90625 26.65625 
Q 51.90625 16.65625 48.90625 10.90625 
Q 45.90625 5.171875 40.15625 2 
Q 34.421875 -1.171875 27.640625 -1.171875 
Q 16.75 -1.171875 10.03125 5.8125 
Q 3.328125 12.796875 3.328125 25.921875 
z
M 12.359375 25.921875 
Q 12.359375 15.96875 16.703125 11.015625 
Q 21.046875 6.0625 27.640625 6.0625 
Q 34.1875 6.0625 38.53125 11.03125 
Q 42.875 16.015625 42.875 26.21875 
Q 42.875 35.84375 38.5 40.796875 
Q 34.125 45.75 27.640625 45.75 
Q 21.046875 45.75 16.703125 40.8125 
Q 12.359375 35.890625 12.359375 25.921875 
z
" id="ArialMT-6f"/>
      <path d="M 9.078125 0 
L 9.078125 10.015625 
L 19.09375 10.015625 
L 19.09375 0 
z
" id="ArialMT-2e"/>
      <path id="ArialMT-20"/>
      <path d="M 8.6875 0 
L 8.6875 45.015625 
L 0.921875 45.015625 
L 0.921875 51.859375 
L 8.6875 51.859375 
L 8.6875 57.375 
Q 8.6875 62.59375 9.625 65.140625 
Q 10.890625 68.5625 14.078125 70.671875 
Q 17.28125 72.796875 23.046875 72.796875 
Q 26.765625 72.796875 31.25 71.921875 
L 29.9375 64.265625 
Q 27.203125 64.75 24.75 64.75 
Q 20.75 64.75 19.09375 63.03125 
Q 17.4375 61.328125 17.4375 56.640625 
L 17.4375 51.859375 
L 27.546875 51.859375 
L 27.546875 45.015625 
L 17.4375 45.015625 
L 17.4375 0 
z
" id="ArialMT-66"/>
      <path d="M 4.984375 -4.296875 
L 13.53125 -5.5625 
Q 14.0625 -9.515625 16.5 -11.328125 
Q 19.78125 -13.765625 25.4375 -13.765625 
Q 31.546875 -13.765625 34.859375 -11.328125 
Q 38.1875 -8.890625 39.359375 -4.5 
Q 40.046875 -1.8125 39.984375 6.78125 
Q 34.234375 0 25.640625 0 
Q 14.9375 0 9.078125 7.71875 
Q 3.21875 15.4375 3.21875 26.21875 
Q 3.21875 33.640625 5.90625 39.90625 
Q 8.59375 46.1875 13.6875 49.609375 
Q 18.796875 53.03125 25.6875 53.03125 
Q 34.859375 53.03125 40.828125 45.609375 
L 40.828125 51.859375 
L 48.921875 51.859375 
L 48.921875 7.03125 
Q 48.921875 -5.078125 46.453125 -10.125 
Q 44 -15.1875 38.640625 -18.109375 
Q 33.296875 -21.046875 25.484375 -21.046875 
Q 16.21875 -21.046875 10.5 -16.875 
Q 4.78125 -12.703125 4.984375 -4.296875 
z
M 12.25 26.859375 
Q 12.25 16.65625 16.296875 11.96875 
Q 20.359375 7.28125 26.46875 7.28125 
Q 32.515625 7.28125 36.609375 11.9375 
Q 40.71875 16.609375 40.71875 26.5625 
Q 40.71875 36.078125 36.5 40.90625 
Q 32.28125 45.75 26.3125 45.75 
Q 20.453125 45.75 16.34375 40.984375 
Q 12.25 36.234375 12.25 26.859375 
z
" id="ArialMT-67"/>
      <path d="M 42.09375 16.703125 
L 51.171875 15.578125 
Q 49.03125 7.625 43.21875 3.21875 
Q 37.40625 -1.171875 28.375 -1.171875 
Q 17 -1.171875 10.328125 5.828125 
Q 3.65625 12.84375 3.65625 25.484375 
Q 3.65625 38.578125 10.390625 45.796875 
Q 17.140625 53.03125 27.875 53.03125 
Q 38.28125 53.03125 44.875 45.953125 
Q 51.46875 38.875 51.46875 26.03125 
Q 51.46875 25.25 51.421875 23.6875 
L 12.75 23.6875 
Q 13.234375 15.140625 17.578125 10.59375 
Q 21.921875 6.0625 28.421875 6.0625 
Q 33.25 6.0625 36.671875 8.59375 
Q 40.09375 11.140625 42.09375 16.703125 
z
M 13.234375 30.90625 
L 42.1875 30.90625 
Q 41.609375 37.453125 38.875 40.71875 
Q 34.671875 45.796875 27.984375 45.796875 
Q 21.921875 45.796875 17.796875 41.75 
Q 13.671875 37.703125 13.234375 30.90625 
z
" id="ArialMT-65"/>
      <path d="M 6.59375 0 
L 6.59375 51.859375 
L 14.5 51.859375 
L 14.5 44.484375 
Q 20.21875 53.03125 31 53.03125 
Q 35.6875 53.03125 39.625 51.34375 
Q 43.5625 49.65625 45.515625 46.921875 
Q 47.46875 44.1875 48.25 40.4375 
Q 48.734375 37.984375 48.734375 31.890625 
L 48.734375 0 
L 39.9375 0 
L 39.9375 31.546875 
Q 39.9375 36.921875 38.90625 39.578125 
Q 37.890625 42.234375 35.28125 43.8125 
Q 32.671875 45.40625 29.15625 45.40625 
Q 23.53125 45.40625 19.453125 41.84375 
Q 15.375 38.28125 15.375 28.328125 
L 15.375 0 
z
" id="ArialMT-6e"/>
      <path d="M 6.59375 0 
L 6.59375 51.859375 
L 14.453125 51.859375 
L 14.453125 44.578125 
Q 16.890625 48.390625 20.9375 50.703125 
Q 25 53.03125 30.171875 53.03125 
Q 35.9375 53.03125 39.625 50.640625 
Q 43.3125 48.25 44.828125 43.953125 
Q 50.984375 53.03125 60.84375 53.03125 
Q 68.5625 53.03125 72.703125 48.75 
Q 76.859375 44.484375 76.859375 35.59375 
L 76.859375 0 
L 68.109375 0 
L 68.109375 32.671875 
Q 68.109375 37.9375 67.25 40.25 
Q 66.40625 42.578125 64.15625 43.984375 
Q 61.921875 45.40625 58.890625 45.40625 
Q 53.421875 45.40625 49.796875 41.765625 
Q 46.1875 38.140625 46.1875 30.125 
L 46.1875 0 
L 37.40625 0 
L 37.40625 33.6875 
Q 37.40625 39.546875 35.25 42.46875 
Q 33.109375 45.40625 28.21875 45.40625 
Q 24.515625 45.40625 21.359375 43.453125 
Q 18.21875 41.5 16.796875 37.734375 
Q 15.375 33.984375 15.375 26.90625 
L 15.375 0 
z
" id="ArialMT-6d"/>
      <path d="M 3.078125 15.484375 
L 11.765625 16.84375 
Q 12.5 11.625 15.84375 8.84375 
Q 19.1875 6.0625 25.203125 6.0625 
Q 31.25 6.0625 34.171875 8.515625 
Q 37.109375 10.984375 37.109375 14.3125 
Q 37.109375 17.28125 34.515625 19 
Q 32.71875 20.171875 25.53125 21.96875 
Q 15.875 24.421875 12.140625 26.203125 
Q 8.40625 27.984375 6.46875 31.125 
Q 4.546875 34.28125 4.546875 38.09375 
Q 4.546875 41.546875 6.125 44.5 
Q 7.71875 47.46875 10.453125 49.421875 
Q 12.5 50.921875 16.03125 51.96875 
Q 19.578125 53.03125 23.640625 53.03125 
Q 29.734375 53.03125 34.34375 51.265625 
Q 38.96875 49.515625 41.15625 46.5 
Q 43.359375 43.5 44.1875 38.484375 
L 35.59375 37.3125 
Q 35.015625 41.3125 32.203125 43.546875 
Q 29.390625 45.796875 24.265625 45.796875 
Q 18.21875 45.796875 15.625 43.796875 
Q 13.03125 41.796875 13.03125 39.109375 
Q 13.03125 37.40625 14.109375 36.03125 
Q 15.1875 34.625 17.484375 33.6875 
Q 18.796875 33.203125 25.25 31.453125 
Q 34.578125 28.953125 38.25 27.359375 
Q 41.9375 25.78125 44.03125 22.75 
Q 46.140625 19.734375 46.140625 15.234375 
Q 46.140625 10.84375 43.578125 6.953125 
Q 41.015625 3.078125 36.171875 0.953125 
Q 31.34375 -1.171875 25.25 -1.171875 
Q 15.140625 -1.171875 9.84375 3.03125 
Q 4.546875 7.234375 3.078125 15.484375 
z
" id="ArialMT-73"/>
     </defs>
     <g style="fill:#262626;" transform="translate(223.004688 347.825)scale(0.1 -0.1)">
      <use xlink:href="#ArialMT-4e"/>
      <use x="72.216797" xlink:href="#ArialMT-6f"/>
      <use x="127.832031" xlink:href="#ArialMT-2e"/>
      <use x="155.615234" xlink:href="#ArialMT-20"/>
      <use x="183.398438" xlink:href="#ArialMT-6f"/>
      <use x="239.013672" xlink:href="#ArialMT-66"/>
      <use x="266.796875" xlink:href="#ArialMT-20"/>
      <use x="294.580078" xlink:href="#ArialMT-67"/>
      <use x="350.195312" xlink:href="#ArialMT-65"/>
      <use x="405.810547" xlink:href="#ArialMT-6e"/>
      <use x="461.425781" xlink:href="#ArialMT-6f"/>
      <use x="517.041016" xlink:href="#ArialMT-6d"/>
      <use x="600.341797" xlink:href="#ArialMT-65"/>
      <use x="655.957031" xlink:href="#ArialMT-73"/>
     </g>
    </g>
   </g>
   <g id="matplotlib.axis_2">
    <g id="ytick_1">
     <g id="text_11">
      <!-- 0 -->
      <g style="fill:#262626;" transform="translate(50.439062 323.978906)scale(0.1 -0.1)">
       <use xlink:href="#ArialMT-30"/>
      </g>
     </g>
    </g>
    <g id="ytick_2">
     <g id="text_12">
      <!-- 10000 -->
      <g style="fill:#262626;" transform="translate(28.195312 268.864084)scale(0.1 -0.1)">
       <use xlink:href="#ArialMT-31"/>
       <use x="55.615234" xlink:href="#ArialMT-30"/>
       <use x="111.230469" xlink:href="#ArialMT-30"/>
       <use x="166.845703" xlink:href="#ArialMT-30"/>
       <use x="222.460938" xlink:href="#ArialMT-30"/>
      </g>
     </g>
    </g>
    <g id="ytick_3">
     <g id="text_13">
      <!-- 20000 -->
      <g style="fill:#262626;" transform="translate(28.195312 213.749261)scale(0.1 -0.1)">
       <use xlink:href="#ArialMT-32"/>
       <use x="55.615234" xlink:href="#ArialMT-30"/>
       <use x="111.230469" xlink:href="#ArialMT-30"/>
       <use x="166.845703" xlink:href="#ArialMT-30"/>
       <use x="222.460938" xlink:href="#ArialMT-30"/>
      </g>
     </g>
    </g>
    <g id="ytick_4">
     <g id="text_14">
      <!-- 30000 -->
      <defs>
       <path d="M 4.203125 18.890625 
L 12.984375 20.0625 
Q 14.5 12.59375 18.140625 9.296875 
Q 21.78125 6 27 6 
Q 33.203125 6 37.46875 10.296875 
Q 41.75 14.59375 41.75 20.953125 
Q 41.75 27 37.796875 30.921875 
Q 33.84375 34.859375 27.734375 34.859375 
Q 25.25 34.859375 21.53125 33.890625 
L 22.515625 41.609375 
Q 23.390625 41.5 23.921875 41.5 
Q 29.546875 41.5 34.03125 44.421875 
Q 38.53125 47.359375 38.53125 53.46875 
Q 38.53125 58.296875 35.25 61.46875 
Q 31.984375 64.65625 26.8125 64.65625 
Q 21.6875 64.65625 18.265625 61.421875 
Q 14.84375 58.203125 13.875 51.765625 
L 5.078125 53.328125 
Q 6.6875 62.15625 12.390625 67.015625 
Q 18.109375 71.875 26.609375 71.875 
Q 32.46875 71.875 37.390625 69.359375 
Q 42.328125 66.84375 44.9375 62.5 
Q 47.5625 58.15625 47.5625 53.265625 
Q 47.5625 48.640625 45.0625 44.828125 
Q 42.578125 41.015625 37.703125 38.765625 
Q 44.046875 37.3125 47.5625 32.6875 
Q 51.078125 28.078125 51.078125 21.140625 
Q 51.078125 11.765625 44.234375 5.25 
Q 37.40625 -1.265625 26.953125 -1.265625 
Q 17.53125 -1.265625 11.296875 4.34375 
Q 5.078125 9.96875 4.203125 18.890625 
z
" id="ArialMT-33"/>
      </defs>
      <g style="fill:#262626;" transform="translate(28.195312 158.634439)scale(0.1 -0.1)">
       <use xlink:href="#ArialMT-33"/>
       <use x="55.615234" xlink:href="#ArialMT-30"/>
       <use x="111.230469" xlink:href="#ArialMT-30"/>
       <use x="166.845703" xlink:href="#ArialMT-30"/>
       <use x="222.460938" xlink:href="#ArialMT-30"/>
      </g>
     </g>
    </g>
    <g id="ytick_5">
     <g id="text_15">
      <!-- 40000 -->
      <defs>
       <path d="M 32.328125 0 
L 32.328125 17.140625 
L 1.265625 17.140625 
L 1.265625 25.203125 
L 33.9375 71.578125 
L 41.109375 71.578125 
L 41.109375 25.203125 
L 50.78125 25.203125 
L 50.78125 17.140625 
L 41.109375 17.140625 
L 41.109375 0 
z
M 32.328125 25.203125 
L 32.328125 57.46875 
L 9.90625 25.203125 
z
" id="ArialMT-34"/>
      </defs>
      <g style="fill:#262626;" transform="translate(28.195312 103.519616)scale(0.1 -0.1)">
       <use xlink:href="#ArialMT-34"/>
       <use x="55.615234" xlink:href="#ArialMT-30"/>
       <use x="111.230469" xlink:href="#ArialMT-30"/>
       <use x="166.845703" xlink:href="#ArialMT-30"/>
       <use x="222.460938" xlink:href="#ArialMT-30"/>
      </g>
     </g>
    </g>
    <g id="ytick_6">
     <g id="text_16">
      <!-- 50000 -->
      <g style="fill:#262626;" transform="translate(28.195312 48.404794)scale(0.1 -0.1)">
       <use xlink:href="#ArialMT-35"/>
       <use x="55.615234" xlink:href="#ArialMT-30"/>
       <use x="111.230469" xlink:href="#ArialMT-30"/>
       <use x="166.845703" xlink:href="#ArialMT-30"/>
       <use x="222.460938" xlink:href="#ArialMT-30"/>
      </g>
     </g>
    </g>
    <g id="text_17">
     <!-- No. of genes -->
     <g style="fill:#262626;" transform="translate(22.090625 210.15)rotate(-90)scale(0.1 -0.1)">
      <use xlink:href="#ArialMT-4e"/>
      <use x="72.216797" xlink:href="#ArialMT-6f"/>
      <use x="127.832031" xlink:href="#ArialMT-2e"/>
      <use x="155.615234" xlink:href="#ArialMT-20"/>
      <use x="183.398438" xlink:href="#ArialMT-6f"/>
      <use x="239.013672" xlink:href="#ArialMT-66"/>
      <use x="266.796875" xlink:href="#ArialMT-20"/>
      <use x="294.580078" xlink:href="#ArialMT-67"/>
      <use x="350.195312" xlink:href="#ArialMT-65"/>
      <use x="405.810547" xlink:href="#ArialMT-6e"/>
      <use x="461.425781" xlink:href="#ArialMT-65"/>
      <use x="517.041016" xlink:href="#ArialMT-73"/>
     </g>
    </g>
   </g>
   <g id="patch_3">
    <path clip-path="url(#pa46073243a)" d="M 80.754545 320.4 
L 80.754545 56.4 
L 82.521167 56.4 
L 82.521167 240.252025 
L 84.287788 240.252025 
L 84.287788 268.200752 
L 86.05441 268.200752 
L 86.05441 245.521002 
L 87.821031 245.521002 
L 87.821031 284.602923 
L 89.587653 284.602923 
L 89.587653 269.727432 
L 91.354274 269.727432 
L 91.354274 290.296284 
L 93.120896 290.296284 
L 93.120896 305.243424 
L 94.887517 305.243424 
L 94.887517 309.806931 
L 96.654138 309.806931 
L 96.654138 293.713403 
L 98.42076 293.713403 
L 98.42076 313.472067 
L 100.187381 313.472067 
L 100.187381 307.409436 
L 101.954003 307.409436 
L 101.954003 317.098622 
L 103.720624 317.098622 
L 103.720624 316.558497 
L 105.487246 316.558497 
L 105.487246 316.663215 
L 107.253867 316.663215 
L 107.253867 317.252944 
L 109.020488 317.252944 
L 109.020488 316.45929 
L 110.78711 316.45929 
L 110.78711 317.886764 
L 112.553731 317.886764 
L 112.553731 318.437912 
L 114.320353 318.437912 
L 114.320353 318.437912 
L 116.086974 318.437912 
L 116.086974 318.432401 
L 117.853596 318.432401 
L 117.853596 318.222965 
L 119.620217 318.222965 
L 119.620217 318.520585 
L 121.386839 318.520585 
L 121.386839 319.231566 
L 123.15346 319.231566 
L 123.15346 318.796159 
L 124.920081 318.796159 
L 124.920081 319.148894 
L 126.686703 319.148894 
L 126.686703 319.165428 
L 128.453324 319.165428 
L 128.453324 319.016618 
L 130.219946 319.016618 
L 130.219946 319.264635 
L 131.986567 319.264635 
L 131.986567 319.033152 
L 133.753189 319.033152 
L 133.753189 319.61737 
L 135.51981 319.61737 
L 135.51981 319.457537 
L 137.286431 319.457537 
L 137.286431 319.490605 
L 139.053053 319.490605 
L 139.053053 319.622881 
L 140.819674 319.622881 
L 140.819674 319.689019 
L 142.586296 319.689019 
L 142.586296 319.799248 
L 144.352917 319.799248 
L 144.352917 319.661461 
L 146.119539 319.661461 
L 146.119539 319.903967 
L 147.88616 319.903967 
L 147.88616 319.738622 
L 149.652782 319.738622 
L 149.652782 319.479582 
L 151.419403 319.479582 
L 151.419403 319.920501 
L 153.186024 319.920501 
L 153.186024 319.848852 
L 154.952646 319.848852 
L 154.952646 319.981127 
L 156.719267 319.981127 
L 156.719267 319.975616 
L 158.485889 319.975616 
L 158.485889 319.91499 
L 160.25251 319.91499 
L 160.25251 320.025219 
L 162.019132 320.025219 
L 162.019132 319.959081 
L 163.785753 319.959081 
L 163.785753 320.025219 
L 165.552374 320.025219 
L 165.552374 320.030731 
L 167.318996 320.030731 
L 167.318996 320.058288 
L 169.085617 320.058288 
L 169.085617 320.135449 
L 170.852239 320.135449 
L 170.852239 320.096868 
L 172.61886 320.096868 
L 172.61886 320.085846 
L 174.385482 320.085846 
L 174.385482 320.135449 
L 176.152103 320.135449 
L 176.152103 320.058288 
L 177.918725 320.058288 
L 177.918725 320.146472 
L 179.685346 320.146472 
L 179.685346 320.168518 
L 181.451967 320.168518 
L 181.451967 320.080334 
L 183.218589 320.080334 
L 183.218589 320.107891 
L 184.98521 320.107891 
L 184.98521 320.113403 
L 186.751832 320.113403 
L 186.751832 320.168518 
L 188.518453 320.168518 
L 188.518453 320.113403 
L 190.285075 320.113403 
L 190.285075 320.157495 
L 192.051696 320.157495 
L 192.051696 320.168518 
L 193.818318 320.168518 
L 193.818318 320.21261 
L 195.584939 320.21261 
L 195.584939 320.163006 
L 197.35156 320.163006 
L 197.35156 320.25119 
L 199.118182 320.25119 
L 199.118182 320.21261 
L 200.884803 320.21261 
L 200.884803 320.218121 
L 202.651425 320.218121 
L 202.651425 320.245678 
L 204.418046 320.245678 
L 204.418046 320.218121 
L 206.184668 320.218121 
L 206.184668 320.256701 
L 207.951289 320.256701 
L 207.951289 320.234656 
L 209.71791 320.234656 
L 209.71791 320.234656 
L 211.484532 320.234656 
L 211.484532 320.300793 
L 213.251153 320.300793 
L 213.251153 320.245678 
L 215.017775 320.245678 
L 215.017775 320.201587 
L 216.784396 320.201587 
L 216.784396 320.240167 
L 218.551018 320.240167 
L 218.551018 320.300793 
L 220.317639 320.300793 
L 220.317639 320.273236 
L 222.084261 320.273236 
L 222.084261 320.273236 
L 223.850882 320.273236 
L 223.850882 320.317328 
L 225.617503 320.317328 
L 225.617503 320.262213 
L 227.384125 320.262213 
L 227.384125 320.256701 
L 229.150746 320.256701 
L 229.150746 320.278747 
L 230.917368 320.278747 
L 230.917368 320.317328 
L 232.683989 320.317328 
L 232.683989 320.25119 
L 234.450611 320.25119 
L 234.450611 320.278747 
L 236.217232 320.278747 
L 236.217232 320.284259 
L 237.983853 320.284259 
L 237.983853 320.284259 
L 239.750475 320.284259 
L 239.750475 320.234656 
L 241.517096 320.234656 
L 241.517096 320.278747 
L 243.283718 320.278747 
L 243.283718 320.317328 
L 245.050339 320.317328 
L 245.050339 320.306305 
L 246.816961 320.306305 
L 246.816961 320.295282 
L 248.583582 320.295282 
L 248.583582 320.300793 
L 250.350204 320.300793 
L 250.350204 320.28977 
L 252.116825 320.28977 
L 252.116825 320.273236 
L 253.883446 320.273236 
L 253.883446 320.28977 
L 255.650068 320.28977 
L 255.650068 320.284259 
L 257.416689 320.284259 
L 257.416689 320.256701 
L 259.183311 320.256701 
L 259.183311 320.21261 
L 260.949932 320.21261 
L 260.949932 320.300793 
L 262.716554 320.300793 
L 262.716554 320.306305 
L 264.483175 320.306305 
L 264.483175 320.333862 
L 266.249796 320.333862 
L 266.249796 320.300793 
L 268.016418 320.300793 
L 268.016418 320.262213 
L 269.783039 320.262213 
L 269.783039 320.234656 
L 271.549661 320.234656 
L 271.549661 320.28977 
L 273.316282 320.28977 
L 273.316282 320.267724 
L 275.082904 320.267724 
L 275.082904 320.317328 
L 276.849525 320.317328 
L 276.849525 320.317328 
L 278.616147 320.317328 
L 278.616147 320.295282 
L 280.382768 320.295282 
L 280.382768 320.306305 
L 282.149389 320.306305 
L 282.149389 320.267724 
L 283.916011 320.267724 
L 283.916011 320.28977 
L 285.682632 320.28977 
L 285.682632 320.273236 
L 287.449254 320.273236 
L 287.449254 320.295282 
L 289.215875 320.295282 
L 289.215875 320.317328 
L 290.982497 320.317328 
L 290.982497 320.28977 
L 292.749118 320.28977 
L 292.749118 320.295282 
L 294.515739 320.295282 
L 294.515739 320.295282 
L 296.282361 320.295282 
L 296.282361 320.278747 
L 298.048982 320.278747 
L 298.048982 320.267724 
L 299.815604 320.267724 
L 299.815604 320.21261 
L 301.582225 320.21261 
L 301.582225 320.317328 
L 303.348847 320.317328 
L 303.348847 320.284259 
L 305.115468 320.284259 
L 305.115468 320.278747 
L 306.88209 320.278747 
L 306.88209 320.295282 
L 308.648711 320.295282 
L 308.648711 320.278747 
L 310.415332 320.278747 
L 310.415332 320.284259 
L 312.181954 320.284259 
L 312.181954 320.179541 
L 313.948575 320.179541 
L 313.948575 320.284259 
L 315.715197 320.284259 
L 315.715197 320.28977 
L 317.481818 320.28977 
L 317.481818 320.267724 
L 319.24844 320.267724 
L 319.24844 320.256701 
L 321.015061 320.256701 
L 321.015061 320.28977 
L 322.781682 320.28977 
L 322.781682 320.284259 
L 324.548304 320.284259 
L 324.548304 320.306305 
L 326.314925 320.306305 
L 326.314925 320.295282 
L 328.081547 320.295282 
L 328.081547 320.240167 
L 329.848168 320.240167 
L 329.848168 320.179541 
L 331.61479 320.179541 
L 331.61479 320.25119 
L 333.381411 320.25119 
L 333.381411 320.28977 
L 335.148033 320.28977 
L 335.148033 320.311816 
L 336.914654 320.311816 
L 336.914654 320.267724 
L 338.681275 320.267724 
L 338.681275 320.223633 
L 340.447897 320.223633 
L 340.447897 320.25119 
L 342.214518 320.25119 
L 342.214518 320.28977 
L 343.98114 320.28977 
L 343.98114 320.273236 
L 345.747761 320.273236 
L 345.747761 320.124426 
L 347.514383 320.124426 
L 347.514383 320.218121 
L 349.281004 320.218121 
L 349.281004 320.267724 
L 351.047626 320.267724 
L 351.047626 320.240167 
L 352.814247 320.240167 
L 352.814247 320.240167 
L 354.580868 320.240167 
L 354.580868 320.10238 
L 356.34749 320.10238 
L 356.34749 320.124426 
L 358.114111 320.124426 
L 358.114111 320.262213 
L 359.880733 320.262213 
L 359.880733 320.333862 
L 361.647354 320.333862 
L 361.647354 320.234656 
L 363.413976 320.234656 
L 363.413976 320.135449 
L 365.180597 320.135449 
L 365.180597 319.837829 
L 366.947218 319.837829 
L 366.947218 320.113403 
L 368.71384 320.113403 
L 368.71384 320.317328 
L 370.480461 320.317328 
L 370.480461 320.306305 
L 372.247083 320.306305 
L 372.247083 320.234656 
L 374.013704 320.234656 
L 374.013704 320.146472 
L 375.780326 320.146472 
L 375.780326 319.727599 
L 377.546947 319.727599 
L 377.546947 320.262213 
L 379.313569 320.262213 
L 379.313569 320.322839 
L 381.08019 320.322839 
L 381.08019 320.339374 
L 382.846811 320.339374 
L 382.846811 320.311816 
L 384.613433 320.311816 
L 384.613433 320.267724 
L 386.380054 320.267724 
L 386.380054 320.256701 
L 388.146676 320.256701 
L 388.146676 320.333862 
L 389.913297 320.333862 
L 389.913297 320.350397 
L 391.679919 320.350397 
L 391.679919 320.295282 
L 393.44654 320.295282 
L 393.44654 320.201587 
L 395.213161 320.201587 
L 395.213161 320.273236 
L 396.979783 320.273236 
L 396.979783 320.28977 
L 398.746404 320.28977 
L 398.746404 320.366931 
L 400.513026 320.366931 
L 400.513026 320.328351 
L 402.279647 320.328351 
L 402.279647 320.333862 
L 404.046269 320.333862 
L 404.046269 320.311816 
L 405.81289 320.311816 
L 405.81289 320.344885 
L 407.579512 320.344885 
L 407.579512 320.350397 
L 409.346133 320.350397 
L 409.346133 320.322839 
L 411.112754 320.322839 
L 411.112754 320.229144 
L 412.879376 320.229144 
L 412.879376 320.008685 
L 414.645997 320.008685 
L 414.645997 320.295282 
L 416.412619 320.295282 
L 416.412619 320.322839 
L 418.17924 320.322839 
L 418.17924 320.377954 
L 419.945862 320.377954 
L 419.945862 320.372443 
L 421.712483 320.372443 
L 421.712483 320.36142 
L 423.479104 320.36142 
L 423.479104 320.355908 
L 425.245726 320.355908 
L 425.245726 320.278747 
L 427.012347 320.278747 
L 427.012347 320.28977 
L 428.778969 320.28977 
L 428.778969 320.36142 
L 430.54559 320.36142 
L 430.54559 320.300793 
L 432.312212 320.300793 
L 432.312212 319.518163 
L 434.078833 319.518163 
L 434.078833 317.859207 
L 435.845455 317.859207 
L 435.845455 320.4 
L 434.078833 320.4 
L 434.078833 320.4 
L 432.312212 320.4 
L 432.312212 320.4 
L 430.54559 320.4 
L 430.54559 320.4 
L 428.778969 320.4 
L 428.778969 320.4 
L 427.012347 320.4 
L 427.012347 320.4 
L 425.245726 320.4 
L 425.245726 320.4 
L 423.479104 320.4 
L 423.479104 320.4 
L 421.712483 320.4 
L 421.712483 320.4 
L 419.945862 320.4 
L 419.945862 320.4 
L 418.17924 320.4 
L 418.17924 320.4 
L 416.412619 320.4 
L 416.412619 320.4 
L 414.645997 320.4 
L 414.645997 320.4 
L 412.879376 320.4 
L 412.879376 320.4 
L 411.112754 320.4 
L 411.112754 320.4 
L 409.346133 320.4 
L 409.346133 320.4 
L 407.579512 320.4 
L 407.579512 320.4 
L 405.81289 320.4 
L 405.81289 320.4 
L 404.046269 320.4 
L 404.046269 320.4 
L 402.279647 320.4 
L 402.279647 320.4 
L 400.513026 320.4 
L 400.513026 320.4 
L 398.746404 320.4 
L 398.746404 320.4 
L 396.979783 320.4 
L 396.979783 320.4 
L 395.213161 320.4 
L 395.213161 320.4 
L 393.44654 320.4 
L 393.44654 320.4 
L 391.679919 320.4 
L 391.679919 320.4 
L 389.913297 320.4 
L 389.913297 320.4 
L 388.146676 320.4 
L 388.146676 320.4 
L 386.380054 320.4 
L 386.380054 320.4 
L 384.613433 320.4 
L 384.613433 320.4 
L 382.846811 320.4 
L 382.846811 320.4 
L 381.08019 320.4 
L 381.08019 320.4 
L 379.313569 320.4 
L 379.313569 320.4 
L 377.546947 320.4 
L 377.546947 320.4 
L 375.780326 320.4 
L 375.780326 320.4 
L 374.013704 320.4 
L 374.013704 320.4 
L 372.247083 320.4 
L 372.247083 320.4 
L 370.480461 320.4 
L 370.480461 320.4 
L 368.71384 320.4 
L 368.71384 320.4 
L 366.947218 320.4 
L 366.947218 320.4 
L 365.180597 320.4 
L 365.180597 320.4 
L 363.413976 320.4 
L 363.413976 320.4 
L 361.647354 320.4 
L 361.647354 320.4 
L 359.880733 320.4 
L 359.880733 320.4 
L 358.114111 320.4 
L 358.114111 320.4 
L 356.34749 320.4 
L 356.34749 320.4 
L 354.580868 320.4 
L 354.580868 320.4 
L 352.814247 320.4 
L 352.814247 320.4 
L 351.047626 320.4 
L 351.047626 320.4 
L 349.281004 320.4 
L 349.281004 320.4 
L 347.514383 320.4 
L 347.514383 320.4 
L 345.747761 320.4 
L 345.747761 320.4 
L 343.98114 320.4 
L 343.98114 320.4 
L 342.214518 320.4 
L 342.214518 320.4 
L 340.447897 320.4 
L 340.447897 320.4 
L 338.681275 320.4 
L 338.681275 320.4 
L 336.914654 320.4 
L 336.914654 320.4 
L 335.148033 320.4 
L 335.148033 320.4 
L 333.381411 320.4 
L 333.381411 320.4 
L 331.61479 320.4 
L 331.61479 320.4 
L 329.848168 320.4 
L 329.848168 320.4 
L 328.081547 320.4 
L 328.081547 320.4 
L 326.314925 320.4 
L 326.314925 320.4 
L 324.548304 320.4 
L 324.548304 320.4 
L 322.781682 320.4 
L 322.781682 320.4 
L 321.015061 320.4 
L 321.015061 320.4 
L 319.24844 320.4 
L 319.24844 320.4 
L 317.481818 320.4 
L 317.481818 320.4 
L 315.715197 320.4 
L 315.715197 320.4 
L 313.948575 320.4 
L 313.948575 320.4 
L 312.181954 320.4 
L 312.181954 320.4 
L 310.415332 320.4 
L 310.415332 320.4 
L 308.648711 320.4 
L 308.648711 320.4 
L 306.88209 320.4 
L 306.88209 320.4 
L 305.115468 320.4 
L 305.115468 320.4 
L 303.348847 320.4 
L 303.348847 320.4 
L 301.582225 320.4 
L 301.582225 320.4 
L 299.815604 320.4 
L 299.815604 320.4 
L 298.048982 320.4 
L 298.048982 320.4 
L 296.282361 320.4 
L 296.282361 320.4 
L 294.515739 320.4 
L 294.515739 320.4 
L 292.749118 320.4 
L 292.749118 320.4 
L 290.982497 320.4 
L 290.982497 320.4 
L 289.215875 320.4 
L 289.215875 320.4 
L 287.449254 320.4 
L 287.449254 320.4 
L 285.682632 320.4 
L 285.682632 320.4 
L 283.916011 320.4 
L 283.916011 320.4 
L 282.149389 320.4 
L 282.149389 320.4 
L 280.382768 320.4 
L 280.382768 320.4 
L 278.616147 320.4 
L 278.616147 320.4 
L 276.849525 320.4 
L 276.849525 320.4 
L 275.082904 320.4 
L 275.082904 320.4 
L 273.316282 320.4 
L 273.316282 320.4 
L 271.549661 320.4 
L 271.549661 320.4 
L 269.783039 320.4 
L 269.783039 320.4 
L 268.016418 320.4 
L 268.016418 320.4 
L 266.249796 320.4 
L 266.249796 320.4 
L 264.483175 320.4 
L 264.483175 320.4 
L 262.716554 320.4 
L 262.716554 320.4 
L 260.949932 320.4 
L 260.949932 320.4 
L 259.183311 320.4 
L 259.183311 320.4 
L 257.416689 320.4 
L 257.416689 320.4 
L 255.650068 320.4 
L 255.650068 320.4 
L 253.883446 320.4 
L 253.883446 320.4 
L 252.116825 320.4 
L 252.116825 320.4 
L 250.350204 320.4 
L 250.350204 320.4 
L 248.583582 320.4 
L 248.583582 320.4 
L 246.816961 320.4 
L 246.816961 320.4 
L 245.050339 320.4 
L 245.050339 320.4 
L 243.283718 320.4 
L 243.283718 320.4 
L 241.517096 320.4 
L 241.517096 320.4 
L 239.750475 320.4 
L 239.750475 320.4 
L 237.983853 320.4 
L 237.983853 320.4 
L 236.217232 320.4 
L 236.217232 320.4 
L 234.450611 320.4 
L 234.450611 320.4 
L 232.683989 320.4 
L 232.683989 320.4 
L 230.917368 320.4 
L 230.917368 320.4 
L 229.150746 320.4 
L 229.150746 320.4 
L 227.384125 320.4 
L 227.384125 320.4 
L 225.617503 320.4 
L 225.617503 320.4 
L 223.850882 320.4 
L 223.850882 320.4 
L 222.084261 320.4 
L 222.084261 320.4 
L 220.317639 320.4 
L 220.317639 320.4 
L 218.551018 320.4 
L 218.551018 320.4 
L 216.784396 320.4 
L 216.784396 320.4 
L 215.017775 320.4 
L 215.017775 320.4 
L 213.251153 320.4 
L 213.251153 320.4 
L 211.484532 320.4 
L 211.484532 320.4 
L 209.71791 320.4 
L 209.71791 320.4 
L 207.951289 320.4 
L 207.951289 320.4 
L 206.184668 320.4 
L 206.184668 320.4 
L 204.418046 320.4 
L 204.418046 320.4 
L 202.651425 320.4 
L 202.651425 320.4 
L 200.884803 320.4 
L 200.884803 320.4 
L 199.118182 320.4 
L 199.118182 320.4 
L 197.35156 320.4 
L 197.35156 320.4 
L 195.584939 320.4 
L 195.584939 320.4 
L 193.818318 320.4 
L 193.818318 320.4 
L 192.051696 320.4 
L 192.051696 320.4 
L 190.285075 320.4 
L 190.285075 320.4 
L 188.518453 320.4 
L 188.518453 320.4 
L 186.751832 320.4 
L 186.751832 320.4 
L 184.98521 320.4 
L 184.98521 320.4 
L 183.218589 320.4 
L 183.218589 320.4 
L 181.451967 320.4 
L 181.451967 320.4 
L 179.685346 320.4 
L 179.685346 320.4 
L 177.918725 320.4 
L 177.918725 320.4 
L 176.152103 320.4 
L 176.152103 320.4 
L 174.385482 320.4 
L 174.385482 320.4 
L 172.61886 320.4 
L 172.61886 320.4 
L 170.852239 320.4 
L 170.852239 320.4 
L 169.085617 320.4 
L 169.085617 320.4 
L 167.318996 320.4 
L 167.318996 320.4 
L 165.552374 320.4 
L 165.552374 320.4 
L 163.785753 320.4 
L 163.785753 320.4 
L 162.019132 320.4 
L 162.019132 320.4 
L 160.25251 320.4 
L 160.25251 320.4 
L 158.485889 320.4 
L 158.485889 320.4 
L 156.719267 320.4 
L 156.719267 320.4 
L 154.952646 320.4 
L 154.952646 320.4 
L 153.186024 320.4 
L 153.186024 320.4 
L 151.419403 320.4 
L 151.419403 320.4 
L 149.652782 320.4 
L 149.652782 320.4 
L 147.88616 320.4 
L 147.88616 320.4 
L 146.119539 320.4 
L 146.119539 320.4 
L 144.352917 320.4 
L 144.352917 320.4 
L 142.586296 320.4 
L 142.586296 320.4 
L 140.819674 320.4 
L 140.819674 320.4 
L 139.053053 320.4 
L 139.053053 320.4 
L 137.286431 320.4 
L 137.286431 320.4 
L 135.51981 320.4 
L 135.51981 320.4 
L 133.753189 320.4 
L 133.753189 320.4 
L 131.986567 320.4 
L 131.986567 320.4 
L 130.219946 320.4 
L 130.219946 320.4 
L 128.453324 320.4 
L 128.453324 320.4 
L 126.686703 320.4 
L 126.686703 320.4 
L 124.920081 320.4 
L 124.920081 320.4 
L 123.15346 320.4 
L 123.15346 320.4 
L 121.386839 320.4 
L 121.386839 320.4 
L 119.620217 320.4 
L 119.620217 320.4 
L 117.853596 320.4 
L 117.853596 320.4 
L 116.086974 320.4 
L 116.086974 320.4 
L 114.320353 320.4 
L 114.320353 320.4 
L 112.553731 320.4 
L 112.553731 320.4 
L 110.78711 320.4 
L 110.78711 320.4 
L 109.020488 320.4 
L 109.020488 320.4 
L 107.253867 320.4 
L 107.253867 320.4 
L 105.487246 320.4 
L 105.487246 320.4 
L 103.720624 320.4 
L 103.720624 320.4 
L 101.954003 320.4 
L 101.954003 320.4 
L 100.187381 320.4 
L 100.187381 320.4 
L 98.42076 320.4 
L 98.42076 320.4 
L 96.654138 320.4 
L 96.654138 320.4 
L 94.887517 320.4 
L 94.887517 320.4 
L 93.120896 320.4 
L 93.120896 320.4 
L 91.354274 320.4 
L 91.354274 320.4 
L 89.587653 320.4 
L 89.587653 320.4 
L 87.821031 320.4 
L 87.821031 320.4 
L 86.05441 320.4 
L 86.05441 320.4 
L 84.287788 320.4 
L 84.287788 320.4 
L 82.521167 320.4 
L 82.521167 320.4 
z
" style="fill:#1f77b4;opacity:0.7;stroke:#ffffff;stroke-linejoin:miter;"/>
   </g>
  </g>
 </g>
 <defs>
  <clipPath id="pa46073243a">
   <rect height="277.2" width="390.6" x="63" y="43.2"/>
  </clipPath>
 </defs>
</svg>
